<?xml version="1.0" encoding="utf-8"?>
<!-- Generator: Adobe Illustrator 19.0.0, SVG Export Plug-In . SVG Version: 6.00 Build 0)  -->
<svg version="1.1" id="图层_1" xmlns="http://www.w3.org/2000/svg" xmlns:xlink="http://www.w3.org/1999/xlink" x="0px" y="0px"
	 viewBox="0 0 35 35" style="enable-background:new 0 0 35 35;" xml:space="preserve">
<style type="text/css">
	.st0{fill-rule:evenodd;clip-rule:evenodd;fill:#757575;}
</style>
<g>
	<g id="XMLID_126_">
		<path id="XMLID_127_" class="st0" d="M26,2v7h7V2H26z M18,9h7V2h-7V9z M10,9h7V2h-7V9z M2,9h7V2H2V9z M26,17h7v-7h-7V17z M18,17h7
			v-7h-7V17z M10,17h7v-7h-7V17z M2,17h7v-7H2V17z M26,25h7v-7h-7V25z M18,25h7v-7h-7V25z M10,25h7v-7h-7V25z M2,25h7v-7H2V25z
			 M26,33h7v-7h-7V33z M18,33h7v-7h-7V33z M10,33h7v-7h-7V33z M2,33h7v-7H2V33z"/>
	</g>
</g>
</svg>
