<?xml version="1.0" encoding="utf-8"?>
<!-- Generator: Adobe Illustrator 19.0.0, SVG Export Plug-In . SVG Version: 6.00 Build 0)  -->
<svg version="1.1" id="图层_1" xmlns="http://www.w3.org/2000/svg" xmlns:xlink="http://www.w3.org/1999/xlink" x="0px" y="0px"
	 viewBox="0 0 20 20" style="enable-background:new 0 0 20 20;" xml:space="preserve">
<style type="text/css">
	.st0{fill:url(#SVGID_1_);}
</style>
<g>
	<g>
		<linearGradient id="SVGID_1_" gradientUnits="userSpaceOnUse" x1="0.6217" y1="10" x2="19.3783" y2="10">
			<stop  offset="0" style="stop-color:#FF3237"/>
			<stop  offset="1" style="stop-color:#FFD668"/>
		</linearGradient>
		<path class="st0" d="M10,6c-2.6,0-4.8,2.1-4.8,4.8v5.9h9.6v-5.9C14.8,8.1,12.7,6,10,6L10,6z M4.4,8.9C4.5,8.4,4.2,8,3.8,7.9
			L1.6,7.5C1.1,7.4,0.7,7.7,0.6,8.1c0,0.1,0,0.2,0,0.3C0.7,8.7,0.9,9,1.2,9l2.3,0.5C3.9,9.6,4.3,9.3,4.4,8.9L4.4,8.9z M3.9,3.6
			l1.4,1.8c0.3,0.3,0.8,0.4,1.1,0.1c0.3-0.3,0.4-0.8,0.1-1.1L5.1,2.7C4.8,2.3,4.4,2.3,4,2.5C3.8,2.7,3.7,3,3.7,3.3
			C3.8,3.4,3.8,3.5,3.9,3.6L3.9,3.6z M10.1,4.3c0.4,0,0.8-0.3,0.8-0.8l0-2.3c0-0.4-0.3-0.8-0.8-0.8c-0.4,0-0.8,0.3-0.8,0.8l0,2.3
			c0,0,0,0.1,0,0.1C9.4,4,9.7,4.3,10.1,4.3L10.1,4.3z M13.7,5.7C14,6,14.5,6,14.8,5.7l1.5-1.7c0.3-0.3,0.3-0.8-0.1-1.1
			c-0.3-0.3-0.8-0.3-1.1,0.1l-1.5,1.7c-0.2,0.2-0.2,0.4-0.2,0.6C13.5,5.4,13.6,5.6,13.7,5.7L13.7,5.7z M19.4,8.5
			c-0.1-0.4-0.5-0.7-0.9-0.7l-2.3,0.3c-0.4,0.1-0.7,0.5-0.7,0.9c0.1,0.4,0.5,0.7,0.9,0.7l2.3-0.3C19.1,9.4,19.4,9,19.4,8.5L19.4,8.5
			z M16.5,18.4c0,0.6-0.5,1.1-1.1,1.1H4.4c-0.6,0-1.1-0.5-1.1-1.1c0-0.6,0.5-1.1,1.1-1.1h11.1C16,17.3,16.5,17.8,16.5,18.4
			L16.5,18.4z M16.5,18.4"/>
	</g>
</g>
</svg>
